<?xml version="1.0" standalone="no"?>
<!DOCTYPE svg PUBLIC "-//W3C//DTD SVG 20010904//EN"
 "http://www.w3.org/TR/2001/REC-SVG-20010904/DTD/svg10.dtd">
<svg version="1.0" xmlns="http://www.w3.org/2000/svg"
 width="700.000000pt" height="700.000000pt" viewBox="0 0 700.000000 700.000000"
 preserveAspectRatio="xMidYMid meet">
<metadata>
Created by potrace 1.14, written by Peter Selinger 2001-2017
</metadata>
<g transform="translate(0.000000,700.000000) scale(0.100000,-0.100000)"
fill="#000000" stroke="none">
<path d="M3745 6413 c-49 -10 -41 -6 -1785 -878 -360 -180 -672 -341 -692
-357 -22 -17 -50 -56 -69 -94 l-33 -66 0 -1924 c1 -1744 -1 -1924 -15 -1925
-9 0 -90 -2 -181 -3 -150 -2 -169 -5 -214 -26 -110 -53 -170 -147 -169 -265 1
-120 59 -212 168 -265 l50 -25 2695 0 2695 0 50 25 c186 92 227 325 83 472
-69 70 -108 81 -313 83 l-180 2 -1 1334 c0 1082 -3 1342 -14 1374 -16 49 -49
103 -81 131 -13 12 -391 266 -840 565 l-815 544 1 510 c1 589 -2 612 -77 695
-64 70 -178 111 -263 93z m-247 -3005 l-3 -2242 -860 -1 c-473 0 -866 1 -872
3 -10 3 -13 373 -13 1807 l0 1803 868 435 c477 239 870 435 875 436 4 1 6
-1008 5 -2241z m1176 613 l576 -384 -2 -1236 -3 -1235 -573 0 c-316 -1 -577 1
-581 4 -9 6 -9 3241 0 3238 4 -2 266 -176 583 -387z"/>
<path d="M2539 4653 c-126 -43 -201 -146 -203 -278 -3 -308 415 -405 550 -129
37 76 38 176 4 249 -64 132 -220 202 -351 158z"/>
<path d="M2529 3774 c-62 -19 -132 -83 -165 -151 -92 -186 48 -414 253 -414
72 0 90 4 141 30 178 91 210 341 61 475 -80 72 -183 93 -290 60z"/>
<path d="M2530 2898 c-163 -54 -242 -247 -165 -405 28 -57 73 -101 138 -135
63 -34 183 -32 253 4 101 53 157 147 156 263 0 86 -25 148 -81 204 -78 78
-195 105 -301 69z"/>
<path d="M2518 2021 c-97 -38 -176 -146 -183 -250 -12 -172 125 -317 293 -313
169 4 295 139 287 308 -10 193 -215 326 -397 255z"/>
</g>
</svg>
